HIERARCHY
ROOT root     
{
	OFFSET 0.0000 0.0000 0.0000
	CHANNELS 6 Xposition Yposition Zposition Zrotation Yrotation Xrotation
	JOINT pelvis   
	{
		OFFSET 0.0000 0.0000 0.0000
		CHANNELS 3 Zrotation Yrotation Xrotation
		JOINT thorax   
		{
			OFFSET 0.0000 23.0750 -5.0000
			CHANNELS 3 Zrotation Yrotation Xrotation
			JOINT rclavicle
			{
				OFFSET 0.0000 28.0009 0.0000
				CHANNELS 3 Zrotation Yrotation Xrotation
				JOINT rhumerus 
				{
					OFFSET -18.5725 5.5939 0.0000
					CHANNELS 3 Zrotation Yrotation Xrotation
					JOINT rradius  
					{
						OFFSET -24.8459 0.0000 0.0000
						CHANNELS 3 Zrotation Yrotation Xrotation
						JOINT rhand    
						{
							OFFSET -24.5477 0.0000 0.0000
							CHANNELS 3 Zrotation Yrotation Xrotation
							End Site
							{
								OFFSET -8.1826 0.0000 0.0000
							}
						}
					}
				}
			}
			JOINT lclavicle
			{
				OFFSET 0.0000 28.0009 0.0000
				CHANNELS 3 Zrotation Yrotation Xrotation
				JOINT lhumerus 
				{
					OFFSET 18.5725 5.5939 0.0000
					CHANNELS 3 Zrotation Yrotation Xrotation
					JOINT lradius  
					{
						OFFSET 24.8459 0.0000 0.0000
						CHANNELS 3 Zrotation Yrotation Xrotation
						JOINT lhand    
						{
							OFFSET 24.5477 0.0000 0.0000
							CHANNELS 3 Zrotation Yrotation Xrotation
							End Site
							{
								OFFSET 8.1826 0.0000 0.0000
							}
						}
					}
				}
			}
			JOINT head     
			{
				OFFSET 0.0000 35.2030 0.0000
				CHANNELS 3 Zrotation Yrotation Xrotation
				End Site
				{
					OFFSET 0.0000 11.7343 0.0000
				}
			}
		}
		JOINT rfemur   
		{
			OFFSET -8.2817 0.0000 0.0000
			CHANNELS 3 Zrotation Yrotation Xrotation
			JOINT rtibia   
			{
				OFFSET 0.0000 -43.3627 0.0000
				CHANNELS 3 Zrotation Yrotation Xrotation
				JOINT rfoot    
				{
					OFFSET 0.0000 -38.2947 0.0000
					CHANNELS 3 Zrotation Yrotation Xrotation
					JOINT rtoes    
					{
						OFFSET 0.0000 0.0000 16.6054
						CHANNELS 3 Zrotation Yrotation Xrotation
						End Site
						{
							OFFSET 0.0000 0.0000 5.5351
						}
					}
				}
			}
		}
		JOINT lfemur   
		{
			OFFSET 8.2817 0.0000 0.0000
			CHANNELS 3 Zrotation Yrotation Xrotation
			JOINT ltibia   
			{
				OFFSET 0.0000 -43.3627 0.0000
				CHANNELS 3 Zrotation Yrotation Xrotation
				JOINT lfoot    
				{
					OFFSET 0.0000 -38.2947 0.0000
					CHANNELS 3 Zrotation Yrotation Xrotation
					JOINT ltoes    
					{
						OFFSET 0.0000 0.0000 16.6054
						CHANNELS 3 Zrotation Yrotation Xrotation
						End Site
						{
							OFFSET 0.0000 0.0000 5.5351
						}
					}
				}
			}
		}
	}
}
MOTION
Frames: 9
Frame Time: .0333333
26.111 85.86 -0.4466 16.7046 85.5142 41.3022 0 -0 0 -9.2929 5.13765 -11.6913 16.3533 -5.00545 -6.29503e-06 25.1978 20.122 -12.6744 -180 87.39 -180 -14.6012 8.57512 -1.10062 -19.8016 17.4167 -0.000104966 -16.8419 -4.67827 -42.3384 -2.67703e-06 -86.6778 2.52605e-06 20.7479 0.407303 0.0746002 11.9395 -0.153 -8.61113 -1.26489 -2.13058 2.90064 -0 -0 11.4541 3.56376e-05 5.88285 33.7461 3.27588 -1.25822e-06 -78.8611 -3.37461 1.73527 -45.2493 -0 -0 15.7497 6.06164e-07 3.36822 3.40371 0.200202 -7.34669e-07 -36.8115 
27.532 85.428 -0.4437 14.3417 85.5505 38.952 0 -0 0 -9.52554 5.08459 -12.047 16.3638 -5.1733 -1.66798e-05 24.0683 20.3414 -12.5217 -180 86.5367 -180 -14.4137 8.45902 -1.07157 -19.8271 17.5446 -0.000129704 -17.409 -4.22634 -43.8352 0 -87.2726 0 21.4661 0.234602 0.0445015 12.7872 -0.430946 -8.43539 -1.38084 -2.43489 3.3773 -0 -0 12.0232 4.54894e-05 6.98505 34.261 3.9457 -6.99742e-05 -79.3108 -3.11099 1.49501 -46.1605 -0 -0 18.0193 4.69487e-07 3.3688 3.90312 0.229603 1.48734e-06 -36.3851 
28.934 84.98 -0.4409 12.1532 85.6058 36.8079 0 -0 0 -9.72222 4.96351 -12.4252 16.3948 -5.34216 -5.16099e-06 23.012 20.5898 -12.3586 -180 85.681 -180 -14.2807 8.3758 -1.05107 -19.8592 17.6689 1.19293e-05 -18.0099 -3.74862 -45.1612 -4.09107e-06 -87.86 3.94015e-06 22.1893 0.0460996 0.00899986 13.5751 -0.704873 -8.25906 -1.50146 -2.73923 3.71426 -0 -0 12.8082 -6.39102e-05 8.17624 34.6865 4.6745 -1.81948e-05 -79.5417 -2.89267 1.30885 -47.2101 -0 -0 20.8434 8.06139e-07 3.33015 4.24954 0.247004 6.61331e-07 -35.2757 
30.322 84.523 -0.4369 9.92957 85.6619 34.6341 0 -0 0 -9.87067 4.80475 -12.7889 16.4331 -5.51419 1.36783e-05 22.0536 20.8773 -12.173 -180 84.8257 -180 -14.2295 8.339 -1.04262 -19.9169 17.8012 7.25129e-05 -18.644 -3.26384 -46.3214 9.65878e-06 -88.3298 -9.94126e-06 22.9082 -0.133796 -0.0270998 14.2919 -0.971001 -8.09055 -1.62844 -3.05664 3.93232 -0 -0 13.8106 -6.00835e-05 9.45086 35.0616 5.46229 -4.93603e-05 -79.5141 -2.70923 1.18774 -48.298 -0 -0 24.0458 1.8353e-06 3.26526 4.3932 0.250402 1.96809e-06 -33.4966 
31.703 84.066 -0.4334 7.61114 85.712 32.3386 0 -0 0 -9.97874 4.63594 -13.1104 16.4715 -5.68254 2.32849e-07 21.2187 21.1974 -11.9525 -180 83.9676 -180 -14.2765 8.35121 -1.04765 -20.0093 17.9439 1.40713e-05 -19.3238 -2.7863 -47.319 1.30573e-05 -88.7641 -1.33397e-05 23.6098 -0.2802 -0.058599 14.927 -1.22871 -7.93331 -1.77946 -3.40271 4.04807 -0 -0 15.0272 5.36177e-05 10.7777 35.4157 6.29492 7.41178e-05 -79.1823 -2.55179 1.12071 -49.3228 -0 -0 27.4153 -2.46223e-06 3.21433 4.30118 0.241299 -4.20574e-07 -31.2289 
33.079 83.62 -0.435 5.41749 85.7075 30.1332 0 -0 0 -10.0765 4.47933 -13.3695 16.5095 -5.83483 1.4816e-05 20.5358 21.5286 -11.6838 -180 83.1026 -180 -14.4284 8.40727 -1.06605 -20.1182 18.1014 0.000100592 -20.089 -2.33776 -48.1523 1.77354e-05 -89.1058 -1.80127e-05 24.2841 -0.374998 -0.0807014 15.4814 -1.48032 -7.78727 -1.9874 -3.79612 4.07 -0 -0 16.4555 0.000129938 12.0971 35.7662 7.14011 -2.12854e-05 -78.489 -2.43265 1.09423 -50.1894 -0 -0 30.758 2.24914e-06 3.21674 3.95153 0.221895 -1.27334e-06 -28.7917 
34.455 83.197 -0.448 3.62228 85.6415 28.2753 0 -0 0 -10.189 4.34931 -13.5555 16.5557 -5.97687 8.55869e-06 20.0114 21.8838 -11.3439 -180 82.2285 -180 -14.6821 8.51233 -1.09869 -20.259 18.2727 -9.68326e-05 -20.9361 -1.92602 -48.8244 7.23494e-06 -89.3431 -7.83258e-06 24.9207 -0.383205 -0.0847018 15.9532 -1.72638 -7.65066 -2.28525 -4.26215 4.00004 -0 -0 18.0913 0.000116174 13.3375 36.1433 7.95993 -2.3725e-05 -77.4219 -2.36569 1.09053 -50.8316 -0 -0 33.9158 8.11473e-07 3.30988 3.33006 0.192501 -1.56532e-07 -26.5188 
35.831 82.808 -0.4766 2.44044 85.4821 26.9852 0 -0 0 -10.3376 4.25747 -13.6698 16.6162 -6.10218 -3.28508e-05 19.6497 22.2458 -10.9149 -180 81.3528 -180 -15.0165 8.66821 -1.14459 -20.42 18.459 4.17999e-06 -21.8913 -1.5676 -49.3336 2.451e-05 -89.4856 -2.47363e-05 25.509 -0.283495 -0.0641985 16.341 -1.96916 -7.51523 -2.69435 -4.8046 3.83683 -0 -0 19.9177 -0.000229023 14.3907 36.5652 8.6909 -1.99745e-05 -75.9918 -2.36891 1.10455 -51.2146 -0 -0 36.7907 -1.3086e-06 3.51356 2.43299 0.149294 -7.6577e-07 -24.6573 
37.207 82.461 -0.5244 1.95152 85.2156 26.3419 0 -0 0 -10.5341 4.21349 -13.7143 16.6937 -6.21192 2.24743e-05 19.445 22.6163 -10.3778 -180 80.4764 -180 -15.4 8.8796 -1.20299 -20.6025 18.6592 -9.91245e-05 -22.9609 -1.27016 -49.6817 8.10396e-06 -89.4897 -8.70278e-06 26.04 -0.0523 -0.0121 16.6436 -2.21045 -7.37282 -3.228 -5.42069 3.58563 -0 -0 21.9138 -0.00023517 15.142 37.0427 9.25898 -2.80268e-05 -74.2424 -2.45612 1.13169 -51.3201 -0 -0 39.3161 1.20335e-06 3.84105 1.27132 0.0852995 -1.91391e-07 -23.3336 
